<svg width="24" height="24" viewBox="0 0 24 24" fill="none" xmlns="http://www.w3.org/2000/svg">
<path d="M6.8077 22C6.30257 22 5.875 21.825 5.525 21.475C5.175 21.125 5 20.6974 5 20.1923V4.8077C5 4.30257 5.175 3.875 5.525 3.525C5.875 3.175 6.30257 3 6.8077 3H14.75L20 8.24995V20.1923C20 20.6974 19.825 21.125 19.475 21.475C19.125 21.825 18.6974 22 18.1922 22H6.8077ZM14 8.99995V4.49998H6.8077C6.73077 4.49998 6.66024 4.53203 6.59612 4.59613C6.53202 4.66024 6.49997 4.73077 6.49997 4.8077V20.1923C6.49997 20.2692 6.53202 20.3397 6.59612 20.4038C6.66024 20.4679 6.73077 20.5 6.8077 20.5H18.1922C18.2692 20.5 18.3397 20.4679 18.4038 20.4038C18.4679 20.3397 18.5 20.2692 18.5 20.1923V8.99995H14Z" fill="#467FCF"/>
<path d="M12.6894 14.1894C12.4141 14.1894 12.1812 14.0941 11.9905 13.9034C11.7999 13.7128 11.7046 13.4798 11.7046 13.2045C11.7046 12.9293 11.7999 12.6964 11.9905 12.5057C12.1812 12.315 12.4141 12.2197 12.6894 12.2197C12.9646 12.2197 13.1976 12.315 13.3883 12.5057C13.5789 12.6964 13.6742 12.9293 13.6742 13.2045C13.6742 13.4798 13.5789 13.7128 13.3883 13.9034C13.1976 14.0941 12.9646 14.1894 12.6894 14.1894ZM10.0909 15.4091C9.89507 15.4091 9.72742 15.3394 9.58796 15.1999C9.44851 15.0605 9.37878 14.8928 9.37878 14.697V11.7121C9.37878 11.5163 9.44851 11.3486 9.58796 11.2092C9.72742 11.0697 9.89507 11 10.0909 11H15.2879C15.4837 11 15.6514 11.0697 15.7908 11.2092C15.9303 11.3486 16 11.5163 16 11.7121V14.697C16 14.8928 15.9303 15.0605 15.7908 15.1999C15.6514 15.3394 15.4837 15.4091 15.2879 15.4091H10.0909ZM10.6818 14.8182H14.697C14.697 14.6217 14.7667 14.4539 14.9062 14.3148C15.0456 14.1756 15.2133 14.1061 15.4091 14.1061V12.303C15.2126 12.303 15.0448 12.2333 14.9057 12.0938C14.7666 11.9544 14.697 11.7867 14.697 11.5909H10.6818C10.6818 11.7874 10.6121 11.9552 10.4726 12.0943C10.3332 12.2335 10.1655 12.303 9.96968 12.303V14.1061C10.1661 14.1061 10.3339 14.1758 10.4731 14.3153C10.6122 14.4547 10.6818 14.6224 10.6818 14.8182ZM14.8258 16.7879H8.71212C8.51628 16.7879 8.34864 16.7182 8.20918 16.5787C8.06973 16.4392 8 16.2716 8 16.0758V12.1743H8.59089V16.0758C8.59089 16.1061 8.60352 16.1338 8.62878 16.1591C8.65403 16.1844 8.68181 16.197 8.71212 16.197H14.8258V16.7879ZM10.0909 14.8182H9.96968V11.5909H10.0909C10.0581 11.5909 10.0297 11.6029 10.0057 11.6269C9.98168 11.6509 9.96968 11.6793 9.96968 11.7121V14.697C9.96968 14.7298 9.98168 14.7582 10.0057 14.7822C10.0297 14.8062 10.0581 14.8182 10.0909 14.8182Z" fill="#467FCF"/>
<path d="M8.50881 11.0442L8.42776 10.3958C8.37072 10.3767 8.31226 10.35 8.25235 10.3156C8.19245 10.2812 8.1389 10.2444 8.09169 10.2051L7.49119 10.4589L7 9.60746L7.51944 9.21491C7.51453 9.18325 7.51105 9.15146 7.509 9.11953C7.50696 9.08761 7.50593 9.05581 7.50593 9.02416C7.50593 8.99387 7.50696 8.9631 7.509 8.93185C7.51105 8.9006 7.51453 8.86642 7.51944 8.82931L7 8.43676L7.49119 7.58945L8.08964 7.84119C8.14094 7.80053 8.19573 7.76335 8.25399 7.72964C8.31225 7.69594 8.36949 7.66885 8.42571 7.64839L8.50881 7H9.49119L9.57224 7.65043C9.6361 7.67363 9.69389 7.70071 9.7456 7.73169C9.79731 7.76266 9.84951 7.79916 9.90217 7.84119L10.5088 7.58945L11 8.43676L10.4724 8.83545C10.48 8.86983 10.4842 8.90197 10.4849 8.93185C10.4855 8.96173 10.4859 8.99182 10.4859 9.02211C10.4859 9.05104 10.4852 9.08044 10.4838 9.11032C10.4825 9.1402 10.4776 9.17438 10.4691 9.21287L10.9926 9.60746L10.5014 10.4589L9.90217 10.203C9.84951 10.2451 9.79574 10.2822 9.74089 10.3146C9.68604 10.3469 9.62982 10.3733 9.57224 10.3938L9.49119 11.0442H8.50881ZM8.78715 10.7249H9.20548L9.28203 10.1547C9.39064 10.1264 9.4899 10.086 9.57982 10.0338C9.66974 9.98152 9.75645 9.91433 9.83996 9.83219L10.3688 10.0545L10.5784 9.6926L10.1167 9.34466C10.1344 9.28954 10.1465 9.23551 10.1529 9.18257C10.1593 9.12963 10.1625 9.07614 10.1625 9.02211C10.1625 8.96672 10.1593 8.91323 10.1529 8.86165C10.1465 8.81008 10.1344 8.75741 10.1167 8.70365L10.5825 8.35162L10.3729 7.98977L9.83791 8.21531C9.76669 8.13917 9.68134 8.07191 9.58187 8.01351C9.4824 7.95511 9.38177 7.91377 9.27998 7.88948L9.21285 7.31928H8.79042L8.72002 7.88743C8.6114 7.91308 8.51112 7.95238 8.41915 8.00532C8.32719 8.05826 8.23946 8.12649 8.15595 8.20999L7.62709 7.98977L7.41751 8.35162L7.87719 8.69424C7.85946 8.74472 7.84704 8.79725 7.83994 8.85183C7.83285 8.90641 7.8293 8.96385 7.8293 9.02416C7.8293 9.07955 7.83285 9.13386 7.83994 9.18707C7.84704 9.24029 7.85877 9.29282 7.87514 9.34466L7.41751 9.6926L7.62709 10.0545L8.1539 9.83096C8.23468 9.91392 8.32105 9.98187 8.41301 10.0348C8.50498 10.0877 8.60663 10.1284 8.71797 10.1568L8.78715 10.7249ZM9.00245 9.66067C9.17956 9.66067 9.33026 9.59852 9.45456 9.47422C9.57886 9.34991 9.64101 9.19921 9.64101 9.02211C9.64101 8.84501 9.57886 8.69431 9.45456 8.57C9.33026 8.4457 9.17956 8.38355 9.00245 8.38355C8.82317 8.38355 8.67192 8.4457 8.54871 8.57C8.4255 8.69431 8.3639 8.84501 8.3639 9.02211C8.3639 9.19921 8.4255 9.34991 8.54871 9.47422C8.67192 9.59852 8.82317 9.66067 9.00245 9.66067Z" fill="#467FCF"/>
</svg>
