<svg width="24" height="24" viewBox="0 0 24 24" fill="none" xmlns="http://www.w3.org/2000/svg">
<path d="M12.2858 18.9154C12.0627 19.1384 11.7954 19.25 11.4839 19.25C11.1724 19.25 10.9051 19.1384 10.682 18.9154L5.3195 13.5529C5.10412 13.3375 4.99763 13.0709 5.00004 12.7531C5.00244 12.4353 5.11373 12.1664 5.33392 11.9462L11.9339 5.33461C12.0378 5.23078 12.1606 5.14905 12.3024 5.08944C12.4442 5.02981 12.5926 5 12.7474 5H18.1099C18.4166 5 18.6808 5.11082 18.9024 5.33246C19.124 5.55408 19.2348 5.81826 19.2348 6.12498V11.4875C19.2348 11.6471 19.2038 11.7978 19.1418 11.9396C19.0798 12.0815 18.9945 12.2067 18.8858 12.3154L12.2858 18.9154ZM16.2349 8.93746C16.4945 8.93746 16.7156 8.84612 16.8983 8.66343C17.081 8.48074 17.1724 8.25959 17.1724 7.99998C17.1724 7.74037 17.081 7.51922 16.8983 7.33653C16.7156 7.15384 16.4945 7.0625 16.2349 7.0625C15.9753 7.0625 15.7541 7.15384 15.5714 7.33653C15.3887 7.51922 15.2974 7.74037 15.2974 7.99998C15.2974 8.25959 15.3887 8.48074 15.5714 8.66343C15.7541 8.84612 15.9753 8.93746 16.2349 8.93746Z" fill="#467FCF"/>
<path d="M9.31641 10.7129C9.31641 10.4004 9.39844 10.1348 9.5625 9.91602C9.72852 9.69531 9.94824 9.58496 10.2217 9.58496C10.4951 9.58496 10.7139 9.69531 10.8779 9.91602C11.0439 10.1348 11.127 10.4004 11.127 10.7129C11.127 11.0254 11.0439 11.292 10.8779 11.5127C10.7139 11.7314 10.4951 11.8408 10.2217 11.8408C9.94824 11.8408 9.72852 11.7314 9.5625 11.5127C9.39844 11.292 9.31641 11.0254 9.31641 10.7129ZM9.78516 10.7129C9.78516 10.9863 9.81836 11.1865 9.88477 11.3135C9.95312 11.4404 10.0654 11.5039 10.2217 11.5039C10.3779 11.5039 10.4893 11.4404 10.5557 11.3135C10.624 11.1865 10.6582 10.9863 10.6582 10.7129C10.6582 10.4395 10.624 10.2393 10.5557 10.1123C10.4893 9.98535 10.3779 9.92188 10.2217 9.92188C10.0654 9.92188 9.95312 9.98535 9.88477 10.1123C9.81836 10.2393 9.78516 10.4395 9.78516 10.7129ZM10.1045 14.1465C10.0459 14.1113 10.04 14.0566 10.0869 13.9824L12.835 9.58496C12.8818 9.51074 12.9346 9.49121 12.9932 9.52637L13.1162 9.60547C13.1748 9.64062 13.1807 9.69531 13.1338 9.76953L10.3857 14.167C10.3389 14.2412 10.2861 14.2607 10.2275 14.2256L10.1045 14.1465ZM12.0938 13.0391C12.0938 12.7266 12.1758 12.4609 12.3398 12.2422C12.5059 12.0215 12.7256 11.9111 12.999 11.9111C13.2725 11.9111 13.4912 12.0215 13.6553 12.2422C13.8213 12.4609 13.9043 12.7266 13.9043 13.0391C13.9043 13.3516 13.8213 13.6182 13.6553 13.8389C13.4912 14.0576 13.2725 14.167 12.999 14.167C12.7256 14.167 12.5059 14.0576 12.3398 13.8389C12.1758 13.6182 12.0938 13.3516 12.0938 13.0391ZM12.5625 13.0391C12.5625 13.3125 12.5957 13.5127 12.6621 13.6396C12.7305 13.7666 12.8428 13.8301 12.999 13.8301C13.1553 13.8301 13.2666 13.7666 13.333 13.6396C13.4014 13.5127 13.4355 13.3125 13.4355 13.0391C13.4355 12.7656 13.4014 12.5654 13.333 12.4385C13.2666 12.3115 13.1553 12.248 12.999 12.248C12.8428 12.248 12.7305 12.3115 12.6621 12.4385C12.5957 12.5654 12.5625 12.7656 12.5625 13.0391Z" fill="white"/>
<circle cx="18" cy="6" r="2.75" stroke="#467FCF" stroke-width="0.5"/>
</svg>
