<svg width="19" height="26" viewBox="0 0 19 26" fill="none" xmlns="http://www.w3.org/2000/svg">
<rect x="3.49075" y="8.5" width="10" height="1" rx="0.1" fill="#467FCF"/>
<rect x="3.49075" y="10.5" width="5" height="1" rx="0.1" fill="#467FCF"/>
<rect x="3.49075" y="12.6513" width="5" height="1" rx="0.1" fill="#467FCF"/>
<rect x="3.49075" y="14.4923" width="7" height="1" rx="0.1" fill="#467FCF"/>
<rect x="3.49075" y="16.5" width="7" height="1" rx="0.1" fill="#467FCF"/>
<rect x="3.49075" y="4.53711" width="1" height="2.96289" rx="0.1" fill="#467FCF"/>
<rect x="4.70169" y="3.5" width="1" height="4" rx="0.1" fill="#467FCF"/>
<rect x="5.91269" y="5.60892" width="1" height="1.8911" rx="0.1" fill="#467FCF"/>
<path fill-rule="evenodd" clip-rule="evenodd" d="M2.49075 18.5V2.5H14.4908V10.4376C14.6451 10.4171 14.8026 10.4065 14.9625 10.4065C15.142 10.4065 15.3184 10.4198 15.4908 10.4456V2C15.4908 1.72386 15.2669 1.5 14.9908 1.5H1.99075C1.71461 1.5 1.49075 1.72386 1.49075 2V19C1.49075 19.2761 1.71461 19.5 1.99075 19.5H14.9908C15.2669 19.5 15.4908 19.2761 15.4908 19V17.4609C15.3184 17.4867 15.142 17.5 14.9625 17.5C14.8026 17.5 14.6451 17.4894 14.4908 17.4689V18.5H2.49075Z" fill="#467FCF"/>
<circle cx="11.4158" cy="4.80384" r="0.861522" fill="#467FCF"/>
<path d="M9.49075 7.23975C9.49075 6.52108 10.0734 5.93848 10.792 5.93848H12.0394C12.7581 5.93848 13.3407 6.52108 13.3407 7.23975V7.23975C13.3407 7.38348 13.2242 7.5 13.0805 7.5H9.75101C9.60727 7.5 9.49075 7.38348 9.49075 7.23975V7.23975Z" fill="#467FCF"/>
<path d="M14.9545 12.0693L15.3793 13.3766H16.7538L15.6418 14.1845L16.0666 15.4918L14.9545 14.6839L13.8425 15.4918L14.2672 14.1845L13.1552 13.3766H14.5297L14.9545 12.0693Z" fill="#467FCF"/>
<circle cx="14.9545" cy="13.9612" r="3.34903" stroke="#467FCF" stroke-width="0.5"/>
</svg>
