<svg width="24" height="24" viewBox="0 0 24 24" fill="none" xmlns="http://www.w3.org/2000/svg">
<path d="M3.90285 21.421C3.37113 21.421 2.92105 21.2368 2.55263 20.8684C2.18421 20.4999 2 20.0499 2 19.5181V8.58701C2 8.05529 2.18421 7.60522 2.55263 7.2368C2.92105 6.86838 3.37113 6.68417 3.90285 6.68417H8.31581V4.90282C8.31581 4.37112 8.50002 3.92105 8.86844 3.55263C9.23686 3.18421 9.68693 3 10.2187 3H13.7813C14.3131 3 14.7631 3.18421 15.1316 3.55263C15.5 3.92105 15.6842 4.37112 15.6842 4.90282V6.68417H20.0972C20.6289 6.68417 21.0789 6.86838 21.4474 7.2368C21.8158 7.60522 22 8.05529 22 8.58701V19.5181C22 20.0499 21.8158 20.4999 21.4474 20.8684C21.0789 21.2368 20.6289 21.421 20.0972 21.421H3.90285ZM3.90285 19.8421H20.0972C20.1781 19.8421 20.2524 19.8083 20.3199 19.7409C20.3873 19.6734 20.4211 19.5991 20.4211 19.5181V8.58701C20.4211 8.50603 20.3873 8.43179 20.3199 8.3643C20.2524 8.29683 20.1781 8.26309 20.0972 8.26309H3.90285C3.82186 8.26309 3.74763 8.29683 3.68014 8.3643C3.61266 8.43179 3.57893 8.50603 3.57893 8.58701V19.5181C3.57893 19.5991 3.61266 19.6734 3.68014 19.7409C3.74763 19.8083 3.82186 19.8421 3.90285 19.8421ZM9.89473 6.68417H14.1053V4.90282C14.1053 4.82184 14.0715 4.74761 14.0041 4.68014C13.9366 4.61265 13.8623 4.5789 13.7813 4.5789H10.2187C10.1377 4.5789 10.0634 4.61265 9.99594 4.68014C9.92847 4.74761 9.89473 4.82184 9.89473 4.90282V6.68417Z" fill="#467FCF"/>
<path d="M11.2393 16.0081H11.7423V15.5617C12.0281 15.523 12.2868 15.4157 12.5185 15.2397C12.7501 15.0638 12.866 14.797 12.866 14.4395C12.866 14.1816 12.7899 13.9534 12.6379 13.7551C12.4858 13.5567 12.1887 13.3777 11.7466 13.218C11.3592 13.0858 11.102 12.9712 10.975 12.8744C10.8479 12.7776 10.7844 12.6422 10.7844 12.4684C10.7844 12.2946 10.8495 12.1534 10.9796 12.0447C11.1097 11.9361 11.2893 11.8818 11.5184 11.8818C11.7102 11.8818 11.8649 11.927 11.9825 12.0175C12.1001 12.1079 12.1906 12.2214 12.2538 12.3579L12.7087 12.1751C12.6317 11.9791 12.5062 11.8113 12.3321 11.6717C12.1581 11.5321 11.9676 11.4543 11.7607 11.4383V10.9919H11.2577V11.4383C10.9436 11.4987 10.7023 11.6261 10.534 11.8205C10.3656 12.0149 10.2814 12.2308 10.2814 12.4684C10.2814 12.7452 10.3652 12.9679 10.5329 13.1365C10.7006 13.3052 10.9738 13.4575 11.3526 13.5935C11.7442 13.7371 12.0117 13.8659 12.155 13.98C12.2984 14.0941 12.37 14.2472 12.37 14.4395C12.37 14.6705 12.2867 14.8382 12.1199 14.9429C11.9532 15.0475 11.765 15.0998 11.5553 15.0998C11.3479 15.0998 11.1624 15.0375 10.9987 14.9128C10.8351 14.7881 10.7093 14.6057 10.6215 14.3658L10.1553 14.5557C10.2507 14.8292 10.3878 15.0464 10.5666 15.2075C10.7453 15.3686 10.9696 15.4805 11.2393 15.5433V16.0081ZM11.5 17C11.0163 17 10.5616 16.908 10.1358 16.724C9.70997 16.5401 9.33954 16.2906 9.0245 15.9755C8.70945 15.6605 8.45994 15.29 8.27597 14.8642C8.09199 14.4384 8 13.9837 8 13.5C8 13.0163 8.09199 12.5616 8.27597 12.1358C8.45994 11.71 8.70945 11.3395 9.0245 11.0245C9.33954 10.7094 9.70997 10.4599 10.1358 10.276C10.5616 10.092 11.0163 10 11.5 10C11.9837 10 12.4384 10.092 12.8642 10.276C13.29 10.4599 13.6605 10.7094 13.9755 11.0245C14.2906 11.3395 14.5401 11.71 14.724 12.1358C14.908 12.5616 15 13.0163 15 13.5C15 13.9837 14.908 14.4384 14.724 14.8642C14.5401 15.29 14.2906 15.6605 13.9755 15.9755C13.6605 16.2906 13.29 16.5401 12.8642 16.724C12.4384 16.908 11.9837 17 11.5 17Z" fill="#467FCF"/>
</svg>
