<svg width="18" height="18" viewBox="0 0 18 18" fill="none" xmlns="http://www.w3.org/2000/svg">
<path fill-rule="evenodd" clip-rule="evenodd" d="M6.9794 11.5408C7.05447 11.5408 7.11523 11.6015 7.11523 11.6766V15.6985C7.11523 15.7736 7.05447 15.8343 6.9794 15.8343H5.45245C5.37738 15.8343 5.31662 15.7736 5.31662 15.6985V11.6766C5.31662 11.6015 5.37739 11.5408 5.45245 11.5408H6.9794ZM2.30154 13.3C2.22648 13.3 2.16571 13.3608 2.16571 13.4358V15.6985C2.16571 15.7736 2.22648 15.8343 2.30154 15.8343H3.8285C3.90356 15.8343 3.96433 15.7736 3.96433 15.6985V13.4358C3.96433 13.3608 3.90356 13.3 3.8285 13.3H2.30154ZM8.60214 9.55992C8.52707 9.55992 8.46631 9.62069 8.46631 9.69576V15.6985C8.46631 15.7736 8.52707 15.8343 8.60214 15.8343H10.1291C10.2042 15.8343 10.2649 15.7736 10.2649 15.6985V9.69576C10.2649 9.62069 10.2042 9.55992 10.1291 9.55992H8.60214ZM11.7524 7.45693C11.6774 7.45693 11.6166 7.5177 11.6166 7.59276V15.6985C11.6166 15.7736 11.6774 15.8343 11.7524 15.8343H13.2794C13.3545 15.8343 13.4152 15.7736 13.4152 15.6985L13.4158 7.59215C13.4158 7.51709 13.355 7.45632 13.28 7.45632L11.7524 7.45693ZM14.1986 16.899L1.10158 16.8984V3.80077C1.10158 3.68102 1.00447 3.58331 0.884124 3.58331C0.764377 3.58331 0.666672 3.68042 0.666672 3.80077V17.1159C0.666672 17.2356 0.763779 17.3333 0.884124 17.3333H14.1992C14.319 17.3333 14.4167 17.2362 14.4167 17.1159C14.4167 16.9961 14.3189 16.899 14.1986 16.899ZM2.3354 12.3445C2.36579 12.3445 2.39736 12.3373 2.42715 12.3236C6.31316 10.5072 9.84245 8.07953 12.9255 5.10371L12.8337 5.60056C12.8117 5.71852 12.8897 5.8323 13.0083 5.85376C13.1263 5.87521 13.24 5.79776 13.2615 5.67921L13.4784 4.50499C13.4903 4.43767 13.4706 4.36797 13.4235 4.31792C13.3771 4.26788 13.3092 4.24226 13.2407 4.25L12.0539 4.37868C11.9348 4.39179 11.8484 4.49903 11.8615 4.61817C11.8746 4.73732 11.9818 4.82372 12.101 4.8106L12.6663 4.74924C9.60832 7.71072 6.10298 10.1259 2.24304 11.9304C2.13462 11.9811 2.08756 12.1104 2.13819 12.2194C2.17513 12.2986 2.25378 12.3445 2.3354 12.3445ZM3.30648 6.46804C3.30648 5.47374 4.11551 4.66534 5.10917 4.66534C6.10348 4.66534 6.91187 5.47378 6.91187 6.46804C6.91187 7.46235 6.10343 8.27074 5.10917 8.27074C4.11492 8.27074 3.30648 7.4623 3.30648 6.46804ZM5.52919 6.96192C5.52204 7.02328 5.48094 7.07809 5.42017 7.10848C5.18724 7.22405 4.75412 7.15018 4.66058 6.9786C4.6028 6.87315 4.47054 6.83443 4.36569 6.89222C4.26024 6.95001 4.22151 7.08226 4.2793 7.18712C4.39488 7.39742 4.63199 7.5273 4.89173 7.57674V7.75904C4.89173 7.87878 4.98884 7.97649 5.10918 7.97649C5.22952 7.97649 5.32663 7.87938 5.32663 7.75904V7.58568C5.4303 7.56959 5.52859 7.5404 5.61438 7.49751C5.80681 7.40219 5.93668 7.22108 5.9617 7.01435C5.99208 6.76711 5.8771 6.55384 5.6382 6.41323C5.47735 6.31911 5.31054 6.27919 5.14969 6.24047C5.09548 6.22736 5.04424 6.21545 4.99361 6.20115C4.84407 6.15945 4.76306 6.11417 4.72314 6.05043C4.67608 5.97536 4.71957 5.91161 4.74995 5.88004C4.83097 5.79544 5.02579 5.75195 5.21225 5.77757C5.36059 5.79782 5.47795 5.8568 5.51846 5.93246C5.57565 6.03791 5.70732 6.07782 5.81277 6.02063C5.91821 5.96403 5.95813 5.83177 5.90094 5.72633C5.79966 5.53807 5.59234 5.40521 5.32723 5.35577V5.17585C5.32723 5.05551 5.23012 4.9584 5.10978 4.9584C4.98944 4.9584 4.89233 5.0555 4.89233 5.17585V5.35398C4.70705 5.38794 4.54381 5.46599 4.43538 5.57859C4.24712 5.7746 4.21436 6.05697 4.35377 6.28039C4.48364 6.48831 4.70108 6.57111 4.87624 6.61997C4.93522 6.63606 4.99241 6.65036 5.04841 6.66346C5.18484 6.69623 5.31353 6.72661 5.41778 6.78798C5.5423 6.86125 5.53515 6.92381 5.53038 6.96134L5.52919 6.96192ZM2.44143 6.46804C2.44143 4.99474 3.63591 3.8009 5.10856 3.8009C6.58187 3.8009 7.7757 4.99538 7.7757 6.46804C7.7757 7.94134 6.58122 9.13518 5.10856 9.13518C3.63526 9.13518 2.44143 7.9407 2.44143 6.46804ZM2.87156 6.46804C2.87156 7.70184 3.8754 8.7057 5.10922 8.7057C6.34363 8.7057 7.34688 7.70187 7.34688 6.46804C7.34688 5.23425 6.34305 4.23038 5.10922 4.23038C3.87543 4.23038 2.87156 5.23422 2.87156 6.46804Z" fill="#467FCF"/>
<path fill-rule="evenodd" clip-rule="evenodd" d="M15.6667 0.25C16.8172 0.25 17.75 1.18282 17.75 2.33333C17.75 3.48385 16.8172 4.41667 15.6667 4.41667C14.5162 4.41667 13.5833 3.48385 13.5833 2.33333C13.5833 1.18282 14.5162 0.25 15.6667 0.25ZM15.3778 1.28488H15.6324C15.6789 1.28488 15.7172 1.3232 15.7172 1.36966V2.35097H16.6127C16.6595 2.35097 16.6975 2.38928 16.6975 2.43574V2.69039C16.6975 2.73718 16.6592 2.77516 16.6127 2.77516H15.2927V1.36966C15.2927 1.32286 15.331 1.28488 15.3778 1.28488ZM15.6667 0.723022C16.5561 0.723022 17.277 1.44392 17.277 2.33333C17.277 3.22275 16.5561 3.94364 15.6667 3.94364C14.7773 3.94364 14.0564 3.22275 14.0564 2.33333C14.0564 1.44425 14.7773 0.723022 15.6667 0.723022Z" fill="#467FCF"/>
</svg>
