<svg width="24" height="24" viewBox="0 0 24 24" fill="none" xmlns="http://www.w3.org/2000/svg">
<rect x="3" y="21" width="19" height="1" rx="0.5" fill="#467FCF"/>
<path d="M5 14.5C5 14.2239 5.22386 14 5.5 14H7.5C7.77614 14 8 14.2239 8 14.5V20H5V14.5Z" fill="#467FCF"/>
<path d="M9 12.5C9 12.2239 9.22386 12 9.5 12H11.5C11.7761 12 12 12.2239 12 12.5V20H9V12.5Z" fill="#467FCF"/>
<path d="M13 14.5C13 14.2239 13.2239 14 13.5 14H15.5C15.7761 14 16 14.2239 16 14.5V20H13V14.5Z" fill="#467FCF"/>
<path d="M17 9.5C17 9.22386 17.2239 9 17.5 9H19.5C19.7761 9 20 9.22386 20 9.5V20H17V9.5Z" fill="#467FCF"/>
<path d="M7.12995 11.1626C7.03866 11.0713 6.99547 10.9665 7.00037 10.848C7.00528 10.7296 7.04847 10.6297 7.12995 10.5482L10.0981 7.54154C10.301 7.33484 10.5523 7.2315 10.8517 7.2315C11.1512 7.2315 11.4043 7.33484 11.611 7.54154L13.081 9.02054C13.1149 9.05448 13.1564 9.07145 13.2055 9.07145C13.2545 9.07145 13.2979 9.05448 13.3356 9.02054L16.5086 5.88261H15.205C15.0797 5.88261 14.9749 5.84037 14.8904 5.75588C14.8059 5.67139 14.7637 5.56653 14.7637 5.44131C14.7637 5.31608 14.8059 5.21122 14.8904 5.12673C14.9749 5.04224 15.0797 5 15.205 5H17.4681C17.6198 5 17.7463 5.05073 17.8478 5.1522C17.9493 5.25366 18 5.38021 18 5.53184V7.79502C18 7.92025 17.9578 8.02511 17.8733 8.10959C17.7888 8.19408 17.6839 8.23633 17.5587 8.23633C17.4335 8.23633 17.3286 8.19503 17.2441 8.11243C17.1596 8.02983 17.1174 7.92591 17.1174 7.80068V6.50271L13.9591 9.661C13.7562 9.86393 13.5049 9.96539 13.2055 9.96539C12.906 9.96539 12.6548 9.86393 12.4518 9.661L10.9819 8.19106C10.9479 8.15711 10.9046 8.14013 10.8517 8.14013C10.7989 8.14013 10.7555 8.15711 10.7216 8.19106L7.75005 11.1626C7.6648 11.2479 7.56145 11.2905 7.43999 11.2905C7.31854 11.2905 7.21519 11.2479 7.12995 11.1626Z" fill="#467FCF"/>
</svg>
