<svg width="24" height="24" viewBox="0 0 24 24" fill="none" xmlns="http://www.w3.org/2000/svg">
<rect x="2" y="21" width="20" height="1" rx="0.5" fill="#467FCF"/>
<path d="M5 14.5C5 14.2239 5.22386 14 5.5 14H7.5C7.77614 14 8 14.2239 8 14.5V20H5V14.5Z" fill="#467FCF"/>
<path d="M10 12.5C10 12.2239 10.2239 12 10.5 12H12.5C12.7761 12 13 12.2239 13 12.5V20H10V12.5Z" fill="#467FCF"/>
<path d="M15 9.5C15 9.22386 15.2239 9 15.5 9H17.5C17.7761 9 18 9.22386 18 9.5V20H15V9.5Z" fill="#467FCF"/>
<path d="M16.3138 7.2915H16.6731V6.97267C16.8772 6.94501 17.062 6.86834 17.2275 6.74266C17.393 6.61699 17.4757 6.42645 17.4757 6.17105C17.4757 5.98684 17.4214 5.82389 17.3128 5.68219C17.2041 5.54049 16.9919 5.41262 16.6761 5.29859C16.3995 5.20412 16.2157 5.1223 16.125 5.05314C16.0342 4.98397 15.9889 4.88731 15.9889 4.76316C15.9889 4.639 16.0353 4.53812 16.1283 4.46052C16.2212 4.38292 16.3495 4.34412 16.5132 4.34412C16.6501 4.34412 16.7606 4.37643 16.8446 4.44104C16.9286 4.50565 16.9933 4.5867 17.0385 4.6842L17.3634 4.55364C17.3084 4.41363 17.2187 4.29377 17.0944 4.19408C16.9701 4.09438 16.834 4.0388 16.6862 4.02733V3.7085H16.3269V4.02733C16.1026 4.07051 15.9302 4.16152 15.81 4.30035C15.6897 4.43919 15.6296 4.59345 15.6296 4.76316C15.6296 4.96086 15.6894 5.11994 15.8092 5.24038C15.929 5.36083 16.1242 5.46964 16.3947 5.5668C16.6744 5.66936 16.8655 5.76138 16.9679 5.84286C17.0703 5.92434 17.1215 6.03374 17.1215 6.17105C17.1215 6.33604 17.0619 6.45589 16.9428 6.53062C16.8237 6.60535 16.6893 6.64272 16.5395 6.64272C16.3914 6.64272 16.2589 6.59818 16.142 6.50911C16.025 6.42005 15.9352 6.28982 15.8725 6.11843L15.5395 6.25405C15.6076 6.4494 15.7056 6.60459 15.8333 6.71963C15.961 6.83468 16.1211 6.91464 16.3138 6.95952V7.2915ZM16.5 8C16.1545 8 15.8297 7.93429 15.5256 7.80288C15.2214 7.67147 14.9568 7.49325 14.7318 7.26822C14.5067 7.04318 14.3285 6.77859 14.1971 6.47444C14.0657 6.17029 14 5.84548 14 5.5C14 5.15452 14.0657 4.82971 14.1971 4.52556C14.3285 4.22141 14.5067 3.95682 14.7318 3.73178C14.9568 3.50675 15.2214 3.32853 15.5256 3.19712C15.8297 3.06571 16.1545 3 16.5 3C16.8455 3 17.1703 3.06571 17.4744 3.19712C17.7786 3.32853 18.0432 3.50675 18.2682 3.73178C18.4933 3.95682 18.6715 4.22141 18.8029 4.52556C18.9343 4.82971 19 5.15452 19 5.5C19 5.84548 18.9343 6.17029 18.8029 6.47444C18.6715 6.77859 18.4933 7.04318 18.2682 7.26822C18.0432 7.49325 17.7786 7.67147 17.4744 7.80288C17.1703 7.93429 16.8455 8 16.5 8ZM16.5 7.60527C17.0877 7.60527 17.5855 7.40132 17.9934 6.99342C18.4013 6.58553 18.6053 6.08772 18.6053 5.5C18.6053 4.91228 18.4013 4.41447 17.9934 4.00658C17.5855 3.59868 17.0877 3.39473 16.5 3.39473C15.9123 3.39473 15.4145 3.59868 15.0066 4.00658C14.5987 4.41447 14.3947 4.91228 14.3947 5.5C14.3947 6.08772 14.5987 6.58553 15.0066 6.99342C15.4145 7.40132 15.9123 7.60527 16.5 7.60527Z" fill="#467FCF"/>
<path d="M4.8882 11.7764C4.7647 11.8381 4.71465 11.9883 4.77639 12.1118C4.83814 12.2353 4.98831 12.2854 5.1118 12.2236L4.8882 11.7764ZM13.2372 8.07906C13.2808 7.94807 13.21 7.80649 13.0791 7.76283L10.9445 7.05132C10.8135 7.00765 10.672 7.07844 10.6283 7.20943C10.5846 7.34042 10.6554 7.482 10.7864 7.52566L12.6838 8.15811L12.0513 10.0555C12.0077 10.1865 12.0784 10.328 12.2094 10.3717C12.3404 10.4154 12.482 10.3446 12.5257 10.2136L13.2372 8.07906ZM5.1118 12.2236L13.1118 8.22361L12.8882 7.77639L4.8882 11.7764L5.1118 12.2236Z" fill="#467FCF"/>
</svg>
