<svg width="24" height="24" viewBox="0 0 24 24" fill="none" xmlns="http://www.w3.org/2000/svg">
<circle cx="12" cy="12" r="9.5" stroke="#467FCF"/>
<path d="M11.6607 12V11.0435C11.2638 10.9726 10.922 10.8172 10.6353 10.5771C10.3485 10.3371 10.1368 10.0015 10 9.57012L10.633 9.30639C10.7558 9.66038 10.9307 9.93115 11.1578 10.1187C11.3849 10.3062 11.6881 10.4 12.0675 10.4C12.3966 10.4 12.687 10.3215 12.9386 10.1644C13.1903 10.0073 13.3161 9.75825 13.3161 9.41715C13.3161 9.12118 13.2215 8.88484 13.0324 8.70813C12.8434 8.53143 12.4521 8.34696 11.8588 8.15472C11.2375 7.9578 10.8059 7.72747 10.5642 7.46374C10.3225 7.19999 10.2017 6.86827 10.2017 6.46857C10.2017 6.0085 10.3627 5.64645 10.6848 5.38242C11.0069 5.11838 11.3322 4.97172 11.6607 4.94241V4H12.3446V4.94241C12.6924 4.98872 12.9846 5.10212 13.2214 5.28263C13.4581 5.46314 13.6422 5.69787 13.7738 5.98681L13.1495 6.27339C13.0495 6.05302 12.9101 5.88189 12.7313 5.75998C12.5524 5.63808 12.3171 5.57712 12.0254 5.57712C11.6823 5.57712 11.4065 5.66093 11.1981 5.82855C10.9898 5.99618 10.8856 6.20952 10.8856 6.46857C10.8856 6.73465 10.9922 6.9474 11.2056 7.10681C11.419 7.26623 11.8156 7.43327 12.3954 7.60792C12.9344 7.77202 13.3365 8.00586 13.6019 8.30945C13.8673 8.61304 14 8.97758 14 9.40308C14 9.903 13.8397 10.291 13.5191 10.567C13.1984 10.8431 12.8069 11.0066 12.3446 11.0576V12H11.6607Z" fill="#467FCF"/>
<path d="M18.0233 12C18.2945 12 18.525 12.095 18.715 12.285C18.905 12.4749 19 12.7055 19 12.9767C19 13.2479 18.905 13.4785 18.715 13.6685C18.525 13.8585 18.2945 13.9535 18.0233 13.9535C17.9603 13.9535 17.9034 13.9508 17.8526 13.9454C17.8018 13.94 17.7513 13.9227 17.7012 13.8933L15.0329 16.5617C15.0622 16.6118 15.0796 16.6622 15.085 16.713C15.0903 16.7639 15.093 16.8207 15.093 16.8837C15.093 17.1549 14.998 17.3855 14.808 17.5755C14.6181 17.7654 14.3875 17.8604 14.1163 17.8604C13.8451 17.8604 13.6145 17.7654 13.4245 17.5755C13.2345 17.3855 13.1395 17.1549 13.1395 16.8837C13.1395 16.8508 13.156 16.747 13.1889 16.5724L11.6368 15.0204C11.5868 15.0425 11.5381 15.0563 11.4909 15.0617C11.4436 15.0671 11.3885 15.0697 11.3256 15.0697C11.2626 15.0697 11.2066 15.0671 11.1576 15.0617C11.1086 15.0563 11.0608 15.039 11.0143 15.0096L8.89335 17.1306C8.92269 17.1771 8.94004 17.2248 8.94541 17.2739C8.95078 17.3229 8.95346 17.3789 8.95346 17.4418C8.95346 17.713 8.85847 17.9436 8.66849 18.1336C8.47852 18.3236 8.24793 18.4186 7.97673 18.4186C7.70553 18.4186 7.47495 18.3236 7.28497 18.1336C7.09499 17.9436 7 17.713 7 17.4418C7 17.1706 7.09499 16.9401 7.28497 16.7501C7.47495 16.5601 7.70553 16.4651 7.97673 16.4651C8.0397 16.4651 8.09569 16.4678 8.14472 16.4732C8.19373 16.4785 8.24149 16.4959 8.28801 16.5252L10.409 14.4043C10.3796 14.3578 10.3623 14.31 10.3569 14.261C10.3515 14.212 10.3488 14.156 10.3488 14.093C10.3488 13.8218 10.4438 13.5912 10.6338 13.4012C10.8238 13.2113 11.0544 13.1163 11.3256 13.1163C11.5968 13.1163 11.8274 13.2113 12.0173 13.4012C12.2073 13.5912 12.3023 13.8218 12.3023 14.093C12.3023 14.156 12.2996 14.2129 12.2943 14.2637C12.2889 14.3145 12.2715 14.3649 12.2422 14.415L13.7943 15.9671C13.8444 15.9377 13.8948 15.9204 13.9456 15.915C13.9964 15.9097 14.0533 15.907 14.1163 15.907C14.1492 15.907 14.253 15.9234 14.4275 15.9563L17.0959 13.288C17.0737 13.2379 17.0599 13.1892 17.0546 13.142C17.0492 13.0948 17.0465 13.0397 17.0465 12.9767C17.0465 12.7055 17.1415 12.4749 17.3315 12.285C17.5215 12.095 17.7521 12 18.0233 12Z" fill="#467FCF"/>
</svg>
