<svg width="24" height="24" viewBox="0 0 24 24" fill="none" xmlns="http://www.w3.org/2000/svg">
<rect x="2" y="21" width="6" height="1" rx="0.5" fill="#467FCF"/>
<rect x="9" y="21" width="6" height="1" rx="0.5" fill="#467FCF"/>
<rect x="16" y="21" width="6" height="1" rx="0.5" fill="#467FCF"/>
<rect x="2" y="20" width="6" height="1" rx="0.5" fill="#467FCF"/>
<rect x="9" y="20" width="6" height="1" rx="0.5" fill="#467FCF"/>
<rect x="16" y="20" width="6" height="1" rx="0.5" fill="#467FCF"/>
<rect x="2" y="19" width="6" height="1" rx="0.5" fill="#467FCF"/>
<rect x="9" y="19" width="6" height="1" rx="0.5" fill="#467FCF"/>
<rect x="16" y="19" width="6" height="1" rx="0.5" fill="#467FCF"/>
<rect x="2" y="18" width="6" height="1" rx="0.5" fill="#467FCF"/>
<rect x="9" y="18" width="6" height="1" rx="0.5" fill="#467FCF"/>
<rect x="16" y="18" width="6" height="1" rx="0.5" fill="#467FCF"/>
<rect x="2" y="17" width="6" height="1" rx="0.5" fill="#467FCF"/>
<rect x="9" y="17" width="6" height="1" rx="0.5" fill="#467FCF"/>
<rect x="16" y="17" width="6" height="1" rx="0.5" fill="#467FCF"/>
<rect x="2" y="16" width="6" height="1" rx="0.5" fill="#467FCF"/>
<rect x="2" y="11" width="6" height="1" rx="0.5" fill="#467FCF"/>
<rect x="9" y="16" width="6" height="1" rx="0.5" fill="#467FCF"/>
<rect x="2" y="15" width="6" height="1" rx="0.5" fill="#467FCF"/>
<rect x="2" y="10" width="6" height="1" rx="0.5" fill="#467FCF"/>
<rect x="9" y="15" width="6" height="1" rx="0.5" fill="#467FCF"/>
<rect x="2" y="14" width="6" height="1" rx="0.5" fill="#467FCF"/>
<rect x="2" y="9" width="6" height="1" rx="0.5" fill="#467FCF"/>
<rect x="9" y="14" width="6" height="1" rx="0.5" fill="#467FCF"/>
<rect x="2" y="13" width="6" height="1" rx="0.5" fill="#467FCF"/>
<rect x="9" y="13" width="6" height="1" rx="0.5" fill="#467FCF"/>
<rect x="2" y="12" width="6" height="1" rx="0.5" fill="#467FCF"/>
<rect x="9" y="12" width="6" height="1" rx="0.5" fill="#467FCF"/>
<path d="M8.82759 6L8 6.84211L12.5517 11.0526L14.2069 9.36842L18.3448 13.1579L17.5172 14H20V11.8947L19.1724 12.7368L14.2069 8.10526L12.5517 9.78947L8.82759 6Z" fill="#467FCF" stroke="#467FCF" stroke-width="0.2"/>
<path d="M4.79403 8.54545V3.09091H5.14347V8.54545H4.79403ZM5.80185 4.83594C5.78196 4.64986 5.69815 4.50497 5.55043 4.40128C5.40412 4.29759 5.21378 4.24574 4.9794 4.24574C4.81463 4.24574 4.6733 4.2706 4.5554 4.32031C4.4375 4.37003 4.3473 4.4375 4.2848 4.52273C4.2223 4.60795 4.19034 4.70526 4.18892 4.81463C4.18892 4.90554 4.20952 4.98437 4.25071 5.05114C4.29332 5.1179 4.35085 5.17472 4.4233 5.22159C4.49574 5.26705 4.57599 5.3054 4.66406 5.33665C4.75213 5.3679 4.84091 5.39418 4.9304 5.41548L5.33949 5.51776C5.50426 5.55611 5.66264 5.60795 5.81463 5.6733C5.96804 5.73864 6.10511 5.82102 6.22585 5.92045C6.34801 6.01989 6.4446 6.13991 6.51562 6.28054C6.58665 6.42116 6.62216 6.58594 6.62216 6.77486C6.62216 7.03054 6.55682 7.25568 6.42614 7.45028C6.29545 7.64347 6.10653 7.79474 5.85938 7.90412C5.61364 8.01207 5.31605 8.06605 4.96662 8.06605C4.62713 8.06605 4.33239 8.01349 4.08239 7.90838C3.83381 7.80327 3.6392 7.64986 3.49858 7.44815C3.35938 7.24645 3.28409 7.00071 3.27273 6.71094H4.05043C4.06179 6.86293 4.10866 6.98935 4.19105 7.0902C4.27344 7.19105 4.38068 7.26634 4.51278 7.31605C4.64631 7.36577 4.79545 7.39062 4.96023 7.39062C5.1321 7.39062 5.28267 7.36506 5.41193 7.31392C5.54261 7.26136 5.64489 7.18892 5.71875 7.09659C5.79261 7.00284 5.83026 6.89347 5.83168 6.76847C5.83026 6.65483 5.79688 6.56108 5.73153 6.48722C5.66619 6.41193 5.57457 6.34943 5.45668 6.29972C5.3402 6.24858 5.20384 6.20312 5.04759 6.16335L4.55114 6.03551C4.19176 5.94318 3.90767 5.80327 3.69886 5.61577C3.49148 5.42685 3.38778 5.17614 3.38778 4.86364C3.38778 4.60653 3.45739 4.38139 3.59659 4.18821C3.73722 3.99503 3.92827 3.84517 4.16974 3.73864C4.41122 3.63068 4.68466 3.5767 4.99006 3.5767C5.29972 3.5767 5.57102 3.63068 5.80398 3.73864C6.03835 3.84517 6.2223 3.99361 6.35582 4.18395C6.48935 4.37287 6.55824 4.5902 6.5625 4.83594H5.80185Z" fill="#467FCF"/>
</svg>
