<svg width="24" height="24" viewBox="0 0 24 24" fill="none" xmlns="http://www.w3.org/2000/svg">
<path d="M4.9718 9.35354V8H19.0282V9.35354H4.9718ZM5.00652 21.987V16.5726H4V15.2191L4.9718 10.7072H19.0282L20 15.2191V16.5726H18.9935V21.987H17.6399V16.5726H13.5792V21.987H5.00652ZM6.36006 20.6334H12.2256V16.5726H6.36006V20.6334Z" fill="#467FCF"/>
<path d="M5.76407 6.80065L6.09047 5.39518L5 4.45016L6.43878 4.3253L7 3L7.56122 4.3253L9 4.45016L7.90953 5.39518L8.23593 6.80065L7 6.05498L5.76407 6.80065Z" fill="#467FCF"/>
<path d="M10.7641 6.80065L11.0905 5.39518L10 4.45016L11.4388 4.3253L12 3L12.5612 4.3253L14 4.45016L12.9095 5.39518L13.2359 6.80065L12 6.05498L10.7641 6.80065Z" fill="#467FCF"/>
<path d="M15.7641 6.80065L16.0905 5.39518L15 4.45016L16.4388 4.3253L17 3L17.5612 4.3253L19 4.45016L17.9095 5.39518L18.2359 6.80065L17 6.05498L15.7641 6.80065Z" fill="#467FCF"/>
</svg>
